PathFileType	4	(X/Y/Z)	s01c0401.trc
DataRate	CameraRate	NumFrames	NumMarkers	Units	OrigDataRate	OrigDataStartFrame	OrigNumFrames
200	200	5	48	mm	200	250	2000
Frame#	Time	racr			lacr			c7			jug			rlel			rdr			llel			ldr			s2			lic			ric			lasi			rasi			rpsi			lpsi			rgt			lgt			rth1			rth2			rth3			rth4			rlfc			rsh1			rsh2			rsh3			rsh4			rlmal			rmmal			rcal			rtoe			rmt5			lth1			lth2			lth4			lth3			llfc			lsh1			lsh2			lsh3			lsh4			llmal			lmmal			lcal			ltoe			lmt5			SBIKE			LBIKE			RBIKE			
		X1	Y1	Z1	X2	Y2	Z2	X3	Y3	Z3	X4	Y4	Z4	X5	Y5	Z5	X6	Y6	Z6	X7	Y7	Z7	X8	Y8	Z8	X9	Y9	Z9	X10	Y10	Z10	X11	Y11	Z11	X12	Y12	Z12	X13	Y13	Z13	X14	Y14	Z14	X15	Y15	Z15	X16	Y16	Z16	X17	Y17	Z17	X18	Y18	Z18	X19	Y19	Z19	X20	Y20	Z20	X21	Y21	Z21	X22	Y22	Z22	X23	Y23	Z23	X24	Y24	Z24	X25	Y25	Z25	X26	Y26	Z26	X27	Y27	Z27	X28	Y28	Z28	X29	Y29	Z29	X30	Y30	Z30	X31	Y31	Z31	X32	Y32	Z32	X33	Y33	Z33	X34	Y34	Z34	X35	Y35	Z35	X36	Y36	Z36	X37	Y37	Z37	X38	Y38	Z38	X39	Y39	Z39	X40	Y40	Z40	X41	Y41	Z41	X42	Y42	Z42	X43	Y43	Z43	X44	Y44	Z44	X45	Y45	Z45	X46	Y46	Z46	X47	Y47	Z47	X48	Y48	Z48	
250	1.2500	481.788849	1366.278564	-105.530113	473.259125	1344.085327	-428.385895	434.148041	1417.535034	-267.022217	467.809174	1263.930054	-259.500244	562.722473	1108.002441	4.479784	711.184570	895.013733	-37.567326	535.467773	1080.080078	-530.499817	708.063904	901.005981	-444.209839	-65.804527	1147.535278	-249.415115	111.098000	1150.883545	-418.545013	100.853180	1145.441650	-94.536621	110.585083	1098.153931	-397.156677	122.322784	1095.638672	-123.036659	-32.071266	1184.958984	-196.613373	-34.453190	1188.432495	-302.920135	38.232380	1032.263062	-61.379330	51.173862	1020.841919	-447.183380	137.932968	940.351685	-42.301746	205.778076	892.404541	-41.573624	276.179840	834.997742	-50.781551	240.039307	935.096313	-53.571278	331.297546	748.985474	-70.417870	235.041672	682.215271	-45.593941	172.377441	625.219727	-52.831493	101.164940	573.504944	-68.939514	205.079391	591.144348	-90.689087	2.023578	495.450958	-92.146919	45.266941	492.964325	-171.166794	-56.451073	485.999786	-147.062820	179.655655	352.110901	-136.019394	73.614151	370.115448	-65.487381	136.034927	921.041565	-454.919189	214.964706	885.442139	-445.778534	238.938446	934.526611	-440.005554	287.434479	843.336487	-425.127441	366.240112	769.120117	-406.660461	321.858154	660.747803	-438.292389	309.101135	575.186951	-432.724121	293.436920	491.454865	-419.307098	363.808289	569.191345	-405.121765	272.265778	367.115509	-403.187622	280.386536	340.257324	-363.718964	0.000000	0.000000	-0.000000	502.295685	321.151855	-370.178680	398.460724	295.112701	-435.560577	-271.558105	877.588379	-266.213562	-12.093647	84.382729	-453.441345	-20.323431	80.810005	-53.799049	
251	1.2550	481.720001	1366.268799	-105.476227	473.216248	1344.015259	-428.487946	433.916382	1417.514038	-267.093903	467.469330	1263.866455	-258.797089	562.589417	1107.933716	4.513298	711.135010	895.022949	-37.627731	535.268738	1079.908691	-530.620605	707.959045	900.935669	-444.246460	-65.800751	1147.501343	-249.357376	111.071236	1150.859009	-418.576324	100.837685	1145.486938	-94.563683	110.586472	1098.088867	-397.119507	122.338272	1095.668335	-123.029953	-32.071266	1184.922852	-196.572144	-34.479778	1188.383057	-302.898529	38.256535	1032.262085	-61.355598	51.209290	1020.855164	-447.181976	137.864609	940.257996	-42.327045	205.641724	892.210754	-41.568501	276.029724	834.767578	-50.734184	239.973740	934.890564	-53.531769	331.074219	748.594727	-70.357033	235.061478	681.622559	-45.331104	172.236954	624.706299	-52.805458	101.050888	572.904968	-68.872368	204.922897	590.686035	-90.677910	1.907701	494.772430	-92.120094	45.184757	492.384705	-171.134598	-56.550850	485.349792	-147.051697	179.574921	351.498474	-135.993088	73.477577	369.534271	-65.498520	136.231110	921.214783	-454.903870	215.196121	885.777039	-445.802948	239.077438	934.803040	-439.942719	287.721252	843.701721	-425.297089	366.619263	769.550659	-406.817871	322.078308	661.228516	-438.385040	309.246674	575.702332	-432.784302	293.519989	491.977020	-419.310303	364.013184	569.635925	-405.177582	272.217316	367.701904	-403.421722	280.424591	340.762573	-363.658234	0.000000	0.000000	-0.000000	502.336609	321.927429	-370.174408	398.545868	295.750488	-435.543182	-271.519928	877.579346	-266.111816	-12.094239	84.381294	-453.433472	-20.317907	80.809608	-53.785648	
252	1.2600	481.666534	1366.274292	-105.452805	473.179047	1343.941162	-428.610687	433.720032	1417.500244	-267.167053	467.431274	1263.993042	-258.742310	562.442444	1107.862549	4.531360	711.060547	894.994507	-37.697041	535.095215	1079.705200	-530.743225	707.825195	900.813965	-444.241577	-65.774933	1147.448853	-249.282211	111.030685	1150.834106	-418.577515	100.850662	1145.495361	-94.569008	110.573166	1098.046509	-397.094604	122.354507	1095.666504	-123.027481	-32.055992	1184.885620	-196.531952	-34.496231	1188.330933	-302.866730	38.283569	1032.235718	-61.342598	51.235687	1020.873413	-447.191711	137.771149	940.097046	-42.323238	205.478455	891.929749	-41.529274	275.761414	834.356079	-50.695686	239.852707	934.555542	-53.471783	330.781708	748.123230	-70.320229	234.809113	681.105347	-45.238419	172.008362	624.086914	-52.773529	100.859909	572.223267	-68.859245	204.717224	590.057861	-90.622986	1.718822	494.087006	-92.117264	45.009808	491.641205	-171.108826	-56.694771	484.687683	-147.064575	179.429001	350.718506	-135.984619	73.317841	368.684540	-65.494957	136.450134	921.416260	-454.890167	215.503677	886.145020	-445.860168	239.237152	935.299866	-439.920258	288.083832	844.134583	-425.465027	367.089539	770.097412	-406.948242	322.385864	661.824341	-438.464691	309.473145	576.226685	-432.765961	293.674500	492.624664	-419.310730	364.229950	570.135132	-405.244232	272.207855	368.413177	-403.634155	280.507355	341.413483	-363.569305	0.000000	0.000000	-0.000000	502.489166	322.687134	-370.157776	398.671997	296.500885	-435.522125	-271.583954	877.592285	-266.192535	-12.097922	84.376724	-453.432739	-20.315077	80.806297	-53.799782	
253	1.2650	481.633667	1366.258911	-105.463860	473.161774	1343.878418	-428.697754	433.552551	1417.465576	-267.214813	467.442932	1264.101929	-258.746124	562.286926	1107.795654	4.542470	710.995483	894.958008	-37.734119	534.915039	1079.526855	-530.885681	707.700928	900.716553	-444.211914	-65.774284	1147.401123	-249.204742	111.021561	1150.819214	-418.568634	100.835846	1145.500122	-94.580589	110.580894	1098.004395	-397.065155	122.377876	1095.635498	-123.039665	-32.034206	1184.852051	-196.486954	-34.511028	1188.276245	-302.826233	38.304356	1032.164673	-61.342091	51.268078	1020.915649	-447.216919	137.663116	939.754822	-42.307144	205.258850	891.492065	-41.508675	275.473236	833.758667	-50.663563	239.697739	934.112854	-53.431488	330.327850	747.474487	-70.292740	234.399307	680.420654	-45.210533	171.596909	623.318054	-52.755695	100.507591	571.440735	-68.845253	204.395050	589.320435	-90.530121	1.327505	493.130493	-92.191589	44.768761	490.795013	-171.081345	-56.934429	483.720459	-147.051132	179.202606	349.923248	-135.977905	73.089920	367.838745	-65.523834	136.701172	921.650330	-454.885284	215.796494	886.560120	-445.924133	239.429886	935.756409	-439.890137	288.509979	844.697815	-425.629517	367.654358	770.787842	-407.107147	322.785278	662.565796	-438.538177	309.798828	577.014526	-432.764130	293.895142	493.403870	-419.317566	364.556854	570.923950	-405.275604	272.241058	369.251831	-403.820557	280.626923	342.194031	-363.479065	224.256119	331.434692	-362.392303	502.603149	323.676819	-370.123108	398.828766	297.392578	-435.503876	-271.554321	877.581604	-266.087036	-12.101479	84.373802	-453.428070	-20.313320	80.805641	-53.776989	
254	1.2700	481.610840	1366.275269	-105.480400	473.146362	1343.809082	-428.815887	433.413208	1417.425781	-267.312164	467.504883	1264.190796	-258.806549	562.115662	1107.721069	4.539575	710.933350	894.923401	-37.765804	534.741150	1079.281006	-530.993774	707.575134	900.600647	-444.157288	-65.745483	1147.353149	-249.167297	111.015099	1150.797974	-418.554260	100.874352	1145.452393	-94.617996	110.595215	1097.979492	-397.003876	122.397606	1095.578125	-123.054024	-32.025131	1184.793701	-196.431686	-34.524406	1188.222534	-302.779327	38.244244	1032.060303	-61.789803	51.322754	1020.979736	-447.243469	137.503448	939.389465	-42.254154	205.009140	891.017151	-41.486465	275.100739	833.104126	-50.686092	239.558395	933.457825	-53.419735	329.763794	746.704773	-70.300461	233.905228	679.503540	-45.264919	171.121033	622.432068	-52.779945	100.052803	570.457520	-68.849228	203.933365	588.435730	-90.583878	0.968311	492.064758	-92.198837	44.481014	489.788513	-171.052963	-57.199577	482.688141	-147.057938	178.973038	348.939941	-136.020874	72.841331	366.808807	-65.501251	136.987091	921.904785	-454.897644	216.152390	887.012573	-445.953339	239.706009	936.241394	-439.906616	288.987976	845.265320	-425.772186	368.303528	771.542419	-407.229401	323.267914	663.442139	-438.604553	310.236145	577.902771	-432.888306	294.182373	494.320038	-419.324738	364.958832	571.734375	-405.307831	272.320557	370.220490	-403.976562	280.788147	343.147247	-363.423584	224.417175	332.381958	-362.377106	502.765961	324.701385	-370.130157	399.011047	298.417694	-435.487244	-271.607056	877.605347	-266.134796	-12.101772	84.367973	-453.434265	-20.311596	80.793938	-53.801399	
